<?xml version="1.0" standalone="no"?>
<!DOCTYPE svg PUBLIC "-//W3C//DTD SVG 20010904//EN"
 "http://www.w3.org/TR/2001/REC-SVG-20010904/DTD/svg10.dtd">
<svg version="1.0" xmlns="http://www.w3.org/2000/svg"
 width="50.000000pt" height="50.000000pt" viewBox="0 0 50.000000 50.000000"
 preserveAspectRatio="xMidYMid meet">

<g transform="translate(0.000000,50.000000) scale(0.100000,-0.100000)"
fill="#000000" stroke="none">
<path d="M60 288 l0 -175 53 -7 c30 -3 73 -12 95 -20 37 -13 47 -13 84 0 22 8
65 17 95 20 l53 7 0 175 0 175 -53 -7 c-30 -3 -73 -12 -95 -20 -37 -13 -47
-13 -84 0 -22 8 -65 17 -95 20 l-53 7 0 -175z m151 127 c33 -12 45 -12 78 0
22 7 60 17 85 20 l46 7 0 -155 0 -155 -46 -7 c-25 -3 -63 -13 -85 -20 -33 -12
-45 -12 -78 0 -22 7 -60 17 -85 20 l-46 7 0 155 0 155 46 -7 c25 -3 63 -13 85
-20z"/>
<path d="M240 291 c0 -68 0 -69 -31 -75 -25 -5 -30 -10 -27 -28 2 -15 11 -24
26 -26 40 -6 52 14 52 85 0 56 2 64 16 59 51 -20 64 -19 64 5 0 19 -8 27 -40
37 -22 6 -44 12 -50 12 -6 0 -10 -29 -10 -69z"/>
<path d="M20 241 l0 -168 68 -7 c37 -3 88 -13 115 -21 41 -12 53 -12 95 0 26
8 77 18 115 21 l67 7 0 168 c0 106 -4 169 -10 169 -6 0 -10 -60 -10 -159 l0
-159 -62 -7 c-35 -4 -82 -13 -105 -20 -35 -11 -51 -11 -85 0 -24 7 -71 16
-105 20 l-63 7 0 159 c0 99 -4 159 -10 159 -6 0 -10 -63 -10 -169z"/>
</g>
</svg>
